<svg width="32" height="32" viewBox="0 0 32 32" fill="none" xmlns="http://www.w3.org/2000/svg">
<path d="M26.667 16.2666V18.5333C26.667 22.7333 24.267 24.5333 20.667 24.5333H8.66699C5.06699 24.5333 2.66699 22.7333 2.66699 18.5333V11.3333C2.66699 7.13331 5.06699 5.33331 8.66699 5.33331H12.267C12.0937 5.83998 12.0003 6.39998 12.0003 6.99998V12.2C12.0003 13.4933 12.427 14.5867 13.187 15.3467C13.947 16.1067 15.0403 16.5333 16.3337 16.5333V18.3867C16.3337 19.0667 17.107 19.4799 17.6803 19.1066L21.5337 16.5333H25.0003C25.6003 16.5333 26.1603 16.4399 26.667 16.2666Z" stroke="white" stroke-width="1.5" stroke-miterlimit="10" stroke-linecap="round" stroke-linejoin="round"/>
<path d="M29.3333 7.00002V12.2001C29.3333 14.1867 28.32 15.68 26.6667 16.2666C26.16 16.44 25.6 16.5334 25 16.5334H21.5333L17.68 19.1066C17.1067 19.48 16.3333 19.0667 16.3333 18.3867V16.5334C15.04 16.5334 13.9467 16.1067 13.1867 15.3467C12.4267 14.5867 12 13.4934 12 12.2001V7.00002C12 6.40002 12.0933 5.84002 12.2667 5.33335C12.8533 3.68002 14.3467 2.66669 16.3333 2.66669H25C27.6 2.66669 29.3333 4.40002 29.3333 7.00002Z" stroke="white" stroke-width="1.5" stroke-miterlimit="10" stroke-linecap="round" stroke-linejoin="round"/>
<path d="M9.86621 29.3333H19.4662" stroke="white" stroke-width="1.5" stroke-miterlimit="10" stroke-linecap="round" stroke-linejoin="round"/>
<path d="M14.667 24.5334V29.3334" stroke="white" stroke-width="1.5" stroke-miterlimit="10" stroke-linecap="round" stroke-linejoin="round"/>
<path d="M24.6607 9.66667H24.6727" stroke="white" stroke-width="2" stroke-linecap="round" stroke-linejoin="round"/>
<path d="M20.9273 9.66667H20.9393" stroke="white" stroke-width="2" stroke-linecap="round" stroke-linejoin="round"/>
<path d="M17.1939 9.66667H17.2059" stroke="white" stroke-width="2" stroke-linecap="round" stroke-linejoin="round"/>
</svg>
